<?xml version="1.0"?>
<svg xmlns="http://www.w3.org/2000/svg" xmlns:xlink="http://www.w3.org/1999/xlink" xmlns:svgjs="http://svgjs.com/svgjs" version="1.1" width="512" height="512" x="0" y="0" viewBox="0 0 215.04 215.04" style="enable-background:new 0 0 512 512" xml:space="preserve" class=""><g>
<g xmlns="http://www.w3.org/2000/svg">
	<g>
		<path d="M211.627,160.434H3.413c-1.884,0-3.413,1.529-3.413,3.413c0,13.175,10.718,23.893,23.893,23.893h167.253    c13.175,0,23.893-10.72,23.893-23.893C215.04,161.963,213.511,160.434,211.627,160.434z M191.147,180.914H23.893    c-8.242,0-15.136-5.873-16.724-13.653H207.87C206.285,175.041,199.388,180.914,191.147,180.914z" fill="#ffffff" data-original="#000000" style="" class=""/>
	</g>
</g>
<g xmlns="http://www.w3.org/2000/svg">
	<g>
		<path d="M194.56,44.381h-25.598c-1.884,0-3.413,1.529-3.413,3.413s1.529,3.413,3.413,3.413h22.185v109.227H23.893V51.207h25.6    c1.884,0,3.413-1.529,3.413-3.413s-1.529-3.413-3.413-3.413H20.48c-1.884,0-3.413,1.529-3.413,3.413v116.053    c0,1.884,1.529,3.413,3.413,3.413h174.08c1.884,0,3.413-1.529,3.413-3.413V47.794C197.973,45.91,196.444,44.381,194.56,44.381z" fill="#ffffff" data-original="#000000" style="" class=""/>
	</g>
</g>
<g xmlns="http://www.w3.org/2000/svg">
	<g>
		<path d="M180.669,80.637c-0.717-2.654-1.401-5.243-2.068-7.762c-6.182-23.334-10.646-40.192-22.473-43.694    c-4.668-1.384-14.384-4.26-24.863,1.958c-8.24,4.886-35.842,4.886-44.081,0c-10.481-6.217-20.195-3.342-24.888-1.952    C50.493,32.682,46.029,49.54,39.847,72.874c-0.666,2.519-1.352,5.108-2.068,7.762c-5.495,20.342-5.468,39.685,0.07,49.277    c1.966,3.405,4.547,5.552,7.67,6.381c0.643,0.171,1.287,0.253,1.93,0.253c7.436,0,14.956-10.89,22.243-21.448    c3.115-4.509,6.333-9.172,8.074-10.522c1.21-0.937,5.823-3.113,22.596-2.866l20.871-0.015c14.28,0.065,18.355,2.036,19.444,2.881    c1.741,1.35,4.96,6.013,8.074,10.522c7.926,11.476,16.128,23.352,24.178,21.197c3.123-0.829,5.704-2.976,7.67-6.381    C186.138,120.322,186.165,100.979,180.669,80.637z M174.693,126.495c-1.026,1.775-2.207,2.852-3.511,3.198    c-3.415,0.84-12.802-12.679-16.807-18.478c-3.874-5.61-6.932-10.04-9.506-12.037c-2.342-1.816-7.335-4.239-23.617-4.313    l-20.84,0.015c-14.078-0.196-22.851,1.215-26.825,4.299c-2.574,1.997-5.632,6.427-9.506,12.037    c-4.007,5.801-13.358,19.359-16.807,18.478c-1.306-0.346-2.485-1.423-3.511-3.198c-3.831-6.637-5.13-22.842,0.608-44.083    c0.72-2.662,1.41-5.265,2.079-7.793c5.402-20.383,9.665-36.483,17.813-38.897c2.166-0.642,5.337-1.58,9.035-1.58    c3.178,0,6.748,0.693,10.407,2.862c10.257,6.084,40.789,6.088,51.048,0c7.916-4.695,15.415-2.476,19.468-1.275    c8.122,2.405,12.387,18.505,17.787,38.888c0.669,2.528,1.359,5.128,2.079,7.793C179.823,103.653,178.524,119.858,174.693,126.495z    " fill="#ffffff" data-original="#000000" style="" class=""/>
	</g>
</g>
<g xmlns="http://www.w3.org/2000/svg">
	<g>
		<rect x="71.68" y="51.199" width="6.827" height="27.307" fill="#ffffff" data-original="#000000" style="" class=""/>
	</g>
</g>
<g xmlns="http://www.w3.org/2000/svg">
	<g>
		<rect x="61.44" y="61.439" width="27.307" height="6.827" fill="#ffffff" data-original="#000000" style="" class=""/>
	</g>
</g>
<g xmlns="http://www.w3.org/2000/svg">
	<g>
		<path d="M141.653,51.207c-8.469,0-15.36,6.89-15.36,15.36c0,8.47,6.892,15.36,15.36,15.36c8.468,0,15.36-6.89,15.36-15.36    C157.013,58.097,150.122,51.207,141.653,51.207z M141.653,75.101c-4.705,0-8.533-3.828-8.533-8.533s3.828-8.533,8.533-8.533    c4.705,0,8.533,3.828,8.533,8.533C150.187,71.273,146.359,75.101,141.653,75.101z" fill="#ffffff" data-original="#000000" style="" class=""/>
	</g>
</g>
<g xmlns="http://www.w3.org/2000/svg">
</g>
<g xmlns="http://www.w3.org/2000/svg">
</g>
<g xmlns="http://www.w3.org/2000/svg">
</g>
<g xmlns="http://www.w3.org/2000/svg">
</g>
<g xmlns="http://www.w3.org/2000/svg">
</g>
<g xmlns="http://www.w3.org/2000/svg">
</g>
<g xmlns="http://www.w3.org/2000/svg">
</g>
<g xmlns="http://www.w3.org/2000/svg">
</g>
<g xmlns="http://www.w3.org/2000/svg">
</g>
<g xmlns="http://www.w3.org/2000/svg">
</g>
<g xmlns="http://www.w3.org/2000/svg">
</g>
<g xmlns="http://www.w3.org/2000/svg">
</g>
<g xmlns="http://www.w3.org/2000/svg">
</g>
<g xmlns="http://www.w3.org/2000/svg">
</g>
<g xmlns="http://www.w3.org/2000/svg">
</g>
</g></svg>
